<?xml version="1.0" encoding="utf-8"?>
<!-- Generator: Adobe Illustrator 16.0.3, SVG Export Plug-In . SVG Version: 6.00 Build 0)  -->
<!DOCTYPE svg PUBLIC "-//W3C//DTD SVG 1.1//EN" "http://www.w3.org/Graphics/SVG/1.1/DTD/svg11.dtd">
<svg version="1.1" id="Capa_1" xmlns="http://www.w3.org/2000/svg" xmlns:xlink="http://www.w3.org/1999/xlink" x="0px" y="0px"
	 width="595.28px" height="841.89px" viewBox="0 0 595.28 841.89" enable-background="new 0 0 595.28 841.89" xml:space="preserve">
<path fill="#D7175A" d="M128.196,309.853c1.421,0,3.062,0.571,4.922,1.711c1.672,1.406,2.836,2.813,3.492,4.219
	c0.39,0.531,0.789,1.649,1.195,3.352v0.141c0,0.609-1.18,1.133-3.539,1.57c-6.36,1.688-9.899,2.657-10.617,2.906
	c-0.219,0.234-0.328,0.492-0.328,0.773v0.188c0.469,1.313,1.203,2.258,2.203,2.836c0.671,0.344,1.227,0.516,1.664,0.516h0.422
	c2.484,0,4.297-1.031,5.438-3.094c0.375-0.969,0.992-1.453,1.852-1.453c0.922-0.296,1.742-0.507,2.461-0.633
	c0.547,0,0.82,0.273,0.82,0.82c0,1.25-0.547,2.766-1.641,4.547c-1.297,1.75-3.133,2.969-5.508,3.656
	c-1.281,0.469-2.695,0.703-4.242,0.703c-1.609-0.156-2.852-0.43-3.727-0.82c-2.329-1.078-4.031-2.742-5.109-4.992
	c-0.969-1.843-1.453-3.914-1.453-6.211V320.4c0-0.094-0.023-0.172-0.07-0.234c0.188-2.109,0.844-4.008,1.969-5.695
	c1.375-2,3.352-3.39,5.93-4.172c1.187-0.343,2.242-0.516,3.164-0.516L128.196,309.853z M121.938,318.947
	c0,0.454,0.188,0.789,0.563,1.008h0.305c0.531,0,3.125-0.671,7.781-2.016c0.219-0.219,0.328-0.406,0.328-0.563v-0.188
	c0-0.641-0.656-1.421-1.969-2.344c-0.625-0.343-1.258-0.516-1.898-0.516c-2.031,0-3.586,0.891-4.664,2.672
	C122.087,317.767,121.938,318.416,121.938,318.947z"/>
<path fill="#D7175A" d="M151.188,309.103h0.07c3.062,0,5.117,1.289,6.164,3.867c0.484,0.656,0.891,3.688,1.219,9.094
	c0.359,3.703,0.539,6.023,0.539,6.961c0,0.609-0.946,0.914-2.836,0.914c0,0.079-0.609,0.117-1.828,0.117h-0.047
	c-0.688,0-1.031-1.046-1.031-3.141c-0.563-7.75-1.094-11.625-1.594-11.625c-0.594-1.016-1.415-1.523-2.461-1.523h-0.727
	c-1.25,0-2.344,0.586-3.281,1.758c-0.407,0.641-0.609,1.57-0.609,2.789v0.234c0,1.266,0.266,5.039,0.797,11.32
	c0,0.735-0.571,1.102-1.711,1.102c-0.844,0.109-1.828,0.188-2.953,0.234c-0.735,0-1.102-0.828-1.102-2.484
	c0-0.234-0.461-5.921-1.383-17.063c0-0.765,0.703-1.148,2.109-1.148c0.953-0.094,1.726-0.141,2.32-0.141h0.047
	c0.516,0,0.835,0.484,0.961,1.453c0.141,0.203,0.305,0.305,0.492,0.305c0.172,0,0.641-0.398,1.406-1.195
	c1.391-1.016,2.476-1.523,3.258-1.523c0.437-0.156,0.898-0.234,1.383-0.234"/>
<path fill="#506379" d="M173.368,300.783h0.258c5.484,0,9.172,1.907,11.063,5.719c0.469,1.219,0.703,2.109,0.703,2.672v0.07
	c0,0.766-0.422,1.148-1.266,1.148h-3.82c-0.859-0.062-1.289-0.406-1.289-1.031c-0.516-1.406-1.148-2.273-1.898-2.602
	c-0.859-0.594-2.109-0.891-3.75-0.891h-0.516c-2.063,0-3.422,0.844-4.078,2.531c-0.079,0.391-0.117,0.672-0.117,0.844v0.375
	c0,1.359,1.609,2.399,4.828,3.117c0.375,0.172,2.265,0.656,5.672,1.453c1.719,0.469,3.156,1.195,4.313,2.18c2,1.563,3,3.618,3,6.164
	c0,3.703-1.781,6.438-5.344,8.203c-1.954,0.938-4.352,1.406-7.195,1.406c-2.391,0-4.719-0.484-6.984-1.453
	c-1.11-0.469-2.344-1.406-3.703-2.813c-1.094-1.484-1.75-3.179-1.969-5.086v-0.375c0-0.531,0.422-0.828,1.266-0.891h3.961
	c0.718,0,1.14,0.531,1.266,1.594c0.547,1.485,1.414,2.523,2.602,3.117c1.344,0.594,2.68,0.891,4.008,0.891
	c1.766,0,3.359-0.516,4.781-1.547c0.641-0.906,0.961-1.648,0.961-2.227c0-2.031-2.125-3.469-6.375-4.313
	c-3.25-0.781-5.797-1.632-7.641-2.555c-2.578-1.578-3.867-3.867-3.867-6.867c0-2.484,1.164-4.672,3.492-6.563
	c1.203-0.969,2.773-1.625,4.711-1.969c0-0.047,0.718-0.148,2.156-0.305"/>
<path fill="#506379" d="M193.595,303.314h0.211c0.531,0,1.078-0.023,1.641-0.07c0.969,0,1.453,0.547,1.453,1.641
	c0,3.391,0.273,5.086,0.82,5.086c0.062,0.063,0.289,0.109,0.68,0.141c0.984-0.047,1.719-0.07,2.203-0.07l0.117-0.07
	c0.828,0,1.242,0.688,1.242,2.063c0.047,0.328,0.07,0.766,0.07,1.313c0,0.25-0.227,0.524-0.68,0.82
	c-2.375,0.172-3.563,0.352-3.563,0.539c-0.188,0.281-0.305,0.602-0.352,0.961c0.359,8,0.68,12,0.961,12
	c0.39,0.641,1.078,0.961,2.063,0.961c0.906-0.047,1.406-0.07,1.5-0.07c0.688,0,1.031,0.735,1.031,2.203
	c0,0.578,0.023,1.11,0.07,1.594c0,0.859-0.914,1.289-2.742,1.289c-0.047,0.047-0.234,0.07-0.563,0.07h-0.609
	c-0.094,0-0.188,0.023-0.281,0.07l-0.117-0.07c-0.047,0-0.234,0.023-0.563,0.07c-0.234-0.047-0.367-0.07-0.398-0.07
	c-0.063,0-0.133,0.023-0.211,0.07c-1.766,0-3.297-0.571-4.594-1.711c-0.672-0.906-1.086-1.937-1.242-3.094
	c-0.407-8.703-0.656-13.164-0.75-13.383c-0.281-0.5-0.695-0.75-1.242-0.75c-0.297,0-0.711,0.047-1.242,0.141
	c-1,0-1.5-0.57-1.5-1.711c0-0.563-0.023-0.906-0.07-1.031c0-1.016,0.32-1.523,0.961-1.523c0-0.047,0.07-0.07,0.211-0.07h0.07
	c1.641,0,2.461-0.32,2.461-0.961c0-0.203,0.023-0.336,0.07-0.398l-0.281-4.734c0-0.781,0.734-1.172,2.203-1.172h0.211"/>
<path fill="#506379" d="M238.431,308.751c1.187,0,2.64,0.516,4.359,1.547c1.391,1.063,2.265,2.188,2.625,3.375v0.234
	c0,0.5-0.977,0.93-2.93,1.289c-0.719,0.25-1.234,0.375-1.547,0.375c-0.469,0-0.875-0.305-1.219-0.914
	c-0.859-0.953-1.82-1.43-2.883-1.43c-2.141,0-3.633,0.946-4.477,2.836c-0.297,0.766-0.445,1.461-0.445,2.086
	c0,3.563,1.164,6.203,3.492,7.922c0.765,0.313,1.359,0.469,1.781,0.469c2.469,0,4.046-1.117,4.734-3.352
	c0.078-1.484,0.343-2.227,0.797-2.227c2.063-0.656,3.375-0.984,3.938-0.984h0.117c0.406,0.234,0.609,0.563,0.609,0.984
	c0,4.359-2.008,7.368-6.023,9.023c-1.532,0.656-3.188,0.984-4.969,0.984c-2.297,0-4.445-0.859-6.445-2.578
	c-1.25-1.281-2.047-2.406-2.391-3.375c-0.813-1.5-1.219-3.664-1.219-6.492v-0.258c0-1.375,0.594-3.055,1.781-5.039
	c1.344-1.843,3.289-3.148,5.836-3.914c1.234-0.375,2.5-0.563,3.797-0.563"/>
<path fill="#506379" d="M255.68,304.439c1.844,0.313,2.766,0.727,2.766,1.242v0.234c0,0.219-0.703,3.266-2.109,9.141
	c-0.516,1.844-0.773,2.977-0.773,3.398c0,0.203,0.094,0.36,0.281,0.469h0.188c0.359,0,1.672-0.781,3.938-2.344
	c1.281-0.765,2.32-1.414,3.117-1.945c0.391-0.156,0.727-0.234,1.008-0.234c3.344,0.641,5.016,1.133,5.016,1.477
	c0,0.422-0.789,1.031-2.367,1.828c-3.219,1.875-4.984,2.953-5.297,3.234c-0.156,0.172-0.234,0.328-0.234,0.469v0.422
	c0.078,0.328,1.57,4.485,4.477,12.469c0,0.094,0.023,0.172,0.07,0.234c-0.109,0.437-0.234,0.656-0.375,0.656h-0.586
	c-3.375-0.735-5.063-1.242-5.063-1.523c-0.188,0-0.758-1.57-1.711-4.711c-0.75-2.297-1.273-3.789-1.57-4.477
	c-0.141-0.078-0.266-0.117-0.375-0.117h-0.117c-1.031,0.281-1.773,0.766-2.227,1.453c-0.781,3.281-1.25,5.148-1.406,5.602
	c0,0.266-0.32,0.422-0.961,0.469c-0.437,0-1.75-0.313-3.937-0.938c-0.234-0.234-0.352-0.469-0.352-0.703c0-0.203,2-8.664,6-25.383
	c0.219-0.516,0.492-0.773,0.82-0.773h0.258l0.398,0.07"/>
<g>
	<path fill="#D7175A" d="M215.837,321.392c0-0.047-0.004-0.145-0.013-0.292c0-0.16-0.037-0.366-0.11-0.617
		c-0.09-0.314-0.274-0.62-0.555-0.918c-0.388-0.346-0.843-0.519-1.366-0.519h-0.133c-0.339,0-0.672,0.083-1,0.25
		c-0.053,0.027-0.443,0.257-0.729,0.597c-0.249,0.379-0.373,0.753-0.373,1.122v0.075c0,0.367,0.061,0.713,0.182,1.038
		c0.364,0.846,1.016,1.269,1.957,1.269c0.254-0.018,0.416-0.042,0.484-0.071c0.144,0,0.382-0.089,0.714-0.266
		C215.522,322.651,215.837,322.095,215.837,321.392z"/>
	<path fill="#D7175A" d="M206.197,315.584c1.216-1.441,2.872-2.418,3.094-2.531c1.144-0.582,2.303-0.912,3.478-1.016v-2.268
		c-1.541,0.104-3.062,0.517-4.559,1.279c-0.277,0.141-2.339,1.355-3.854,3.152c-1.313,2-1.969,3.977-1.969,5.93v0.163h2.233
		C204.633,318.742,205.155,317.173,206.197,315.584z"/>
	<path fill="#D7175A" d="M222.749,322.434c-0.141,2.752-1.458,4.954-3.98,6.588c-1.406,0.752-2.416,1.129-3.03,1.129
		c-0.156,0.068-0.44,0.128-0.829,0.181v2.271c0.64-0.075,1.098-0.161,1.33-0.261c0.765,0,2.023-0.469,3.773-1.406
		c3.233-2.095,4.882-4.933,4.974-8.501H222.749z"/>
	<path fill="#D7175A" d="M222.25,318.088c0.254,0.865,0.4,1.596,0.448,2.205h2.221c-0.037-0.801-0.222-1.786-0.571-2.975
		c-0.469-1.656-1.445-3.273-2.93-4.852c-1.87-1.669-4.042-2.567-6.509-2.712v2.27c1.884,0.159,3.547,0.881,4.988,2.168
		C221.09,315.459,221.874,316.758,222.25,318.088z"/>
	<path fill="#D7175A" d="M205.388,325.07c-0.314-0.844-0.521-1.726-0.643-2.636h-2.236c0.142,1.24,0.413,2.437,0.84,3.58
		c1.799,4.183,4.951,6.382,9.42,6.649v-2.265C209.277,330.135,206.809,328.371,205.388,325.07z"/>
	<path fill="#D7175A" d="M216.272,325.181c-0.598,0.32-1.046,0.498-1.362,0.55v2.425c0.149-0.028,0.276-0.059,0.353-0.091
		c0.47,0,1.245-0.289,2.322-0.866c1.846-1.196,2.852-2.788,3.034-4.765h-2.396C218.009,323.555,217.364,324.473,216.272,325.181z"/>
	<path fill="#D7175A" d="M218.039,319.63c0.071,0.243,0.122,0.459,0.161,0.663h2.359c-0.05-0.427-0.138-0.9-0.307-1.474
		c-0.289-1.02-0.889-2.015-1.803-2.986c-1.03-0.919-2.215-1.442-3.54-1.61v2.434c0.712,0.16,1.361,0.483,1.935,0.996
		C217.45,318.296,217.848,318.955,218.039,319.63z"/>
	<path fill="#D7175A" d="M207.949,316.9c-0.75,1.144-1.137,2.274-1.19,3.393h2.369c0.086-0.638,0.335-1.283,0.762-1.934
		c0.617-0.732,1.458-1.228,1.57-1.285c0.432-0.22,0.869-0.364,1.31-0.45v-2.429c-0.827,0.1-1.643,0.354-2.449,0.765
		C210.149,315.047,208.881,315.795,207.949,316.9z"/>
	<path fill="#D7175A" d="M209.479,323.174c-0.089-0.239-0.142-0.491-0.201-0.74h-2.406c0.099,0.597,0.248,1.177,0.457,1.736
		c1.06,2.463,2.877,3.814,5.44,4.072v-2.414C211.237,325.582,210.136,324.703,209.479,323.174z"/>
</g>
</svg>
